<svg width="26" height="26" viewBox="0 0 26 26" fill="none" xmlns="http://www.w3.org/2000/svg">
<path d="M11.701 3.25C12.2783 2.25 13.7217 2.25 14.299 3.25L22.0933 16.75C22.6706 17.75 21.9489 19 20.7942 19H5.20577C4.05107 19 3.32938 17.75 3.90673 16.75L11.701 3.25Z" fill="white" stroke="white"/>
<path d="M12.289 13.71L11.911 10V7.2H14.081V10L13.717 13.71H12.289ZM13.843 16.832C13.6096 17.0653 13.3296 17.182 13.003 17.182C12.6763 17.182 12.3963 17.0653 12.163 16.832C11.9296 16.5987 11.813 16.3187 11.813 15.992C11.813 15.6653 11.9296 15.3853 12.163 15.152C12.3963 14.9187 12.6763 14.802 13.003 14.802C13.3296 14.802 13.6096 14.9187 13.843 15.152C14.0763 15.3853 14.193 15.6653 14.193 15.992C14.193 16.3187 14.0763 16.5987 13.843 16.832Z" fill="#44AA76"/>
</svg>
