<svg width="230" height="88" viewBox="0 0 230 88" fill="none" xmlns="http://www.w3.org/2000/svg">
<path d="M104.946 66.064C104.946 66.7114 105.399 67.0999 106.046 67.0999H108.895C110.837 67.0999 112.132 66.064 112.132 64.0569C112.132 62.8268 111.226 61.8556 109.996 61.6614C110.902 61.2729 111.29 60.5608 111.29 59.5896C111.29 58.1005 110.125 57.1293 108.701 57.1293H106.046C105.399 57.1293 104.946 57.5178 104.946 58.1652V65.9992V66.064ZM107.017 59.0069H108.118C108.701 59.0069 109.219 59.3306 109.219 59.9781C109.219 60.6902 108.765 61.0787 108.118 61.0787H107.017V59.0069ZM107.999 62.9634L108.506 62.9563C109.478 62.9563 109.996 63.4095 109.996 64.0569C109.996 64.8338 109.413 65.2871 108.701 65.2871H107.082V62.9563L107.999 62.9634ZM121.973 66.2582C121.973 66.1935 121.973 66.1287 121.973 66.064L121.002 60.496C120.937 60.1076 120.419 59.5896 119.707 59.5896C119.06 59.5896 118.607 60.0428 118.477 60.4313L117.312 64.1217L116.146 60.4313C116.017 60.0428 115.564 59.5896 114.916 59.5896C114.204 59.5896 113.751 60.0428 113.686 60.496L112.715 66.064C112.715 66.1287 112.715 66.1935 112.715 66.2582C112.715 66.7762 113.103 67.2294 113.686 67.2294C114.398 67.2294 114.657 66.8409 114.722 66.323L115.24 62.6326L116.34 66.5172C116.405 66.8409 116.664 67.2294 117.376 67.2294C118.089 67.2294 118.348 66.8409 118.412 66.5172L119.513 62.6326L120.031 66.323C120.096 66.8409 120.419 67.2294 121.067 67.2294C121.649 67.2294 122.038 66.7762 122.038 66.2582H121.973ZM128.771 64.1217C129.354 64.1217 129.678 63.7979 129.678 63.2153C129.678 61.5319 128.253 59.5249 126.052 59.5249C123.915 59.5249 122.491 61.4024 122.491 63.4095C122.491 65.6108 123.98 67.2941 126.246 67.2941C127.735 67.2941 129.483 66.4524 129.483 65.6108C129.483 65.1576 129.095 64.7691 128.642 64.7691C128.124 64.7691 127.412 65.6108 126.376 65.6108C125.469 65.6108 124.628 65.1576 124.498 64.1864H128.771V64.1217ZM124.498 62.762C124.563 61.9204 125.21 61.2082 126.052 61.2082C126.958 61.2082 127.541 61.8556 127.671 62.762H124.498ZM136.087 60.8197C136.087 59.8486 134.404 59.5249 133.627 59.5249C131.491 59.5249 130.066 61.4024 130.066 63.4095C130.066 65.4813 131.491 67.2941 133.627 67.2941C134.339 67.2941 136.087 66.9704 136.087 65.9345C136.087 65.4813 135.699 65.0281 135.246 65.0281C134.987 65.0281 134.275 65.4165 133.757 65.4165C132.656 65.4165 132.073 64.3806 132.073 63.4095C132.073 62.3736 132.591 61.3377 133.757 61.3377C134.404 61.3377 134.857 61.7261 135.31 61.7261C135.764 61.7261 136.087 61.2082 136.087 60.755V60.8197ZM138.483 66.1287C138.483 66.7762 138.871 67.2294 139.454 67.2294C140.037 67.2294 140.425 66.7762 140.425 66.1287V61.4672H141.85C142.367 61.4672 142.821 61.2082 142.821 60.5608C142.821 59.9133 142.367 59.6543 141.85 59.6543H137.058C136.541 59.6543 136.152 60.0428 136.152 60.5608C136.152 61.0787 136.476 61.4672 137.058 61.4672H138.483V66.1287ZM149.295 64.1217C149.878 64.1217 150.201 63.7979 150.201 63.2153C150.201 61.5319 148.777 59.5249 146.576 59.5249C144.439 59.5249 143.015 61.4024 143.015 63.4095C143.015 65.6108 144.504 67.2941 146.77 67.2941C148.259 67.2941 150.007 66.4524 150.007 65.6108C150.007 65.1576 149.619 64.7691 149.166 64.7691C148.648 64.7691 147.935 65.6108 146.9 65.6108C145.993 65.6108 145.151 65.1576 145.022 64.1864H149.295V64.1217ZM145.022 62.762C145.087 61.9204 145.734 61.2082 146.576 61.2082C147.482 61.2082 148.065 61.8556 148.194 62.762H145.022ZM163.733 66.2582C163.733 66.1935 163.733 66.1287 163.733 66.064L162.762 60.496C162.697 60.1076 162.179 59.5896 161.467 59.5896C160.819 59.5896 160.366 60.0428 160.237 60.4313L159.071 64.1217L157.906 60.4313C157.777 60.0428 157.323 59.5896 156.676 59.5896C155.964 59.5896 155.51 60.0428 155.446 60.496L154.475 66.064C154.475 66.1287 154.475 66.1935 154.475 66.2582C154.475 66.7762 154.863 67.2294 155.446 67.2294C156.158 67.2294 156.417 66.8409 156.482 66.323L157 62.6326L158.1 66.5172C158.165 66.8409 158.424 67.2294 159.136 67.2294C159.848 67.2294 160.107 66.8409 160.172 66.5172L161.273 62.6326L161.791 66.323C161.855 66.8409 162.179 67.2294 162.827 67.2294C163.409 67.2294 163.798 66.7762 163.798 66.2582H163.733ZM166.646 64.0569H167.877C168.459 64.0569 168.718 64.3806 168.718 64.7044C168.718 65.1576 168.395 65.4813 167.941 65.4813H166.646V64.0569ZM165.675 67.1646H168.265C169.754 67.1646 170.725 66.2582 170.725 64.7691C170.725 63.1505 169.625 62.3736 168.071 62.3736H166.646V60.755C166.646 60.1076 166.258 59.6543 165.675 59.6543C165.093 59.6543 164.704 60.1076 164.704 60.755V66.064C164.704 66.7114 165.093 67.1646 165.675 67.1646ZM171.761 66.1287C171.761 66.7762 172.15 67.2294 172.732 67.2294C173.315 67.2294 173.703 66.7762 173.703 66.1287V60.755C173.703 60.1076 173.315 59.6543 172.732 59.6543C172.15 59.6543 171.761 60.1076 171.761 60.755V66.1287ZM184.321 60.8197C184.321 59.8486 182.638 59.5249 181.861 59.5249C179.725 59.5249 178.3 61.4024 178.3 63.4095C178.3 65.4813 179.725 67.2941 181.861 67.2941C182.573 67.2941 184.321 66.9704 184.321 65.9345C184.321 65.4813 183.933 65.0281 183.48 65.0281C183.221 65.0281 182.509 65.4165 181.991 65.4165C180.89 65.4165 180.307 64.3806 180.307 63.4095C180.307 62.3736 180.825 61.3377 181.991 61.3377C182.638 61.3377 183.091 61.7261 183.545 61.7261C183.998 61.7261 184.321 61.2082 184.321 60.755V60.8197ZM191.573 66.1287V60.755C191.573 60.1076 191.184 59.6543 190.602 59.6543C190.213 59.6543 189.889 59.9133 189.63 60.3018L187.105 63.7332V60.8197C187.105 60.1723 186.717 59.7191 186.134 59.7191C185.552 59.7191 185.163 60.1723 185.163 60.8197V66.1935C185.163 66.8409 185.552 67.2941 186.134 67.2941C186.458 67.2941 186.717 67.0999 186.976 66.8409L189.695 63.2153V66.1935C189.695 66.8409 190.084 67.2941 190.666 67.2941C191.249 67.2941 191.638 66.8409 191.638 66.1935L191.573 66.1287ZM193.58 60.8197V63.7979C193.58 64.9633 193.191 65.4165 192.738 65.546C192.35 65.6755 192.155 65.9992 192.155 66.3877C192.155 66.8409 192.479 67.2941 193.062 67.2941C194.551 67.2941 195.587 66.064 195.587 63.6037V61.5319H197.27V66.1935C197.27 66.8409 197.659 67.2941 198.241 67.2941C198.824 67.2941 199.213 66.8409 199.213 66.1935V60.8845C199.213 60.237 198.824 59.7838 198.241 59.7838H194.551C193.968 59.7838 193.58 60.237 193.58 60.8845V60.8197ZM202.385 64.0569H203.615C204.198 64.0569 204.457 64.3806 204.457 64.7044C204.457 65.1576 204.133 65.4813 203.68 65.4813H202.385V64.0569ZM201.414 67.1646H204.004C205.493 67.1646 206.464 66.2582 206.464 64.7691C206.464 63.1505 205.363 62.3736 203.809 62.3736H202.385V60.755C202.385 60.1076 201.997 59.6543 201.414 59.6543C200.831 59.6543 200.443 60.1076 200.443 60.755V66.064C200.443 66.7114 200.831 67.1646 201.414 67.1646ZM213.909 66.1287V60.755C213.909 60.1076 213.521 59.6543 212.938 59.6543C212.356 59.6543 211.967 60.1076 211.967 60.755V62.3736H209.377V60.755C209.377 60.1076 208.989 59.6543 208.406 59.6543C207.824 59.6543 207.435 60.1076 207.435 60.755V66.1287C207.435 66.7762 207.824 67.2294 208.406 67.2294C208.989 67.2294 209.377 66.7762 209.377 66.1287V64.1864H211.967V66.1287C211.967 66.7762 212.356 67.2294 212.938 67.2294C213.521 67.2294 213.909 66.7762 213.909 66.1287ZM220.902 64.1217C221.484 64.1217 221.808 63.7979 221.808 63.2153C221.808 61.5319 220.384 59.5249 218.183 59.5249C216.046 59.5249 214.622 61.4024 214.622 63.4095C214.622 65.6108 216.111 67.2941 218.377 67.2941C219.866 67.2941 221.614 66.4524 221.614 65.6108C221.614 65.1576 221.225 64.7691 220.772 64.7691C220.254 64.7691 219.542 65.6108 218.506 65.6108C217.6 65.6108 216.758 65.1576 216.629 64.1864H220.902V64.1217ZM216.629 62.762C216.693 61.9204 217.341 61.2082 218.183 61.2082C219.089 61.2082 219.672 61.8556 219.801 62.762H216.629ZM228.412 64.1217C228.995 64.1217 229.318 63.7979 229.318 63.2153C229.318 61.5319 227.894 59.5249 225.693 59.5249C223.556 59.5249 222.132 61.4024 222.132 63.4095C222.132 65.6108 223.621 67.2941 225.887 67.2941C227.376 67.2941 229.124 66.4524 229.124 65.6108C229.124 65.1576 228.736 64.7691 228.283 64.7691C227.765 64.7691 227.052 65.6108 226.017 65.6108C225.11 65.6108 224.268 65.1576 224.139 64.1864H228.412V64.1217ZM224.139 62.762C224.268 61.9204 224.851 61.2082 225.693 61.2082C226.599 61.2082 227.182 61.8556 227.311 62.762H224.139Z" fill="white"/>
<path d="M229.124 48.2594V23.9805C229.124 21.9087 227.959 20.6138 225.822 20.6138H218.247C211.579 20.6138 207.5 23.592 207.5 30.3901C207.5 35.1164 211.061 37.9004 215.463 38.5478L208.147 46.4466C207.565 47.094 207.306 47.7415 207.306 48.3242C207.306 50.0075 208.665 51.6261 210.543 51.6261C211.32 51.6261 212.356 51.3024 213.068 50.5255L222.65 38.8716H222.715V48.2594C222.715 50.396 224.074 51.6261 225.952 51.6261C227.829 51.6261 229.189 50.396 229.189 48.2594H229.124ZM104.946 35.9581C104.946 44.8927 111.031 51.8851 119.772 51.8851C122.944 51.8851 129.483 50.9139 129.483 46.7703C129.483 45.7992 128.577 43.8568 126.635 43.8568C124.887 43.8568 123.398 45.6697 119.772 45.6697C114.463 45.6697 111.679 41.2671 111.679 36.0876C111.679 30.8433 114.463 26.2465 119.772 26.2465C123.398 26.2465 124.628 27.7356 126.376 27.7356C127.994 27.7356 129.03 26.376 129.03 24.8222C129.03 21.0023 122.88 19.9664 119.772 19.9664C110.967 19.9664 104.946 26.894 104.946 35.8934V35.9581ZM150.59 41.9145C152.468 41.9145 153.309 41.0081 153.309 39.1305C153.309 33.951 148.842 27.8004 142.109 27.8004C135.569 27.8004 130.973 33.5626 130.973 39.8427C130.973 46.7056 135.634 51.8203 142.626 51.8203C147.223 51.8203 152.791 49.2306 152.791 46.5761C152.791 45.2165 151.561 43.9216 150.266 43.9216C148.648 43.9216 146.446 46.4466 143.209 46.4466C140.296 46.4466 137.771 45.0222 137.317 41.9793H150.59V41.9145ZM137.188 37.7709C137.512 35.1164 139.325 33.0446 142.109 33.0446C145.022 33.0446 146.705 35.0517 147.094 37.7709H137.188ZM183.804 48.6479C183.804 48.4537 183.804 48.2594 183.739 48.0652L180.631 30.8433C180.437 29.6132 178.883 28.1241 176.682 28.1241C174.675 28.1241 173.186 29.4837 172.797 30.6491L169.236 42.044H169.171L165.611 30.6491C165.222 29.419 163.733 28.1241 161.726 28.1241C159.589 28.1241 158.035 29.6132 157.841 30.8433L154.734 48.0652C154.669 48.2594 154.669 48.4537 154.669 48.6479C154.669 50.2665 155.899 51.6261 157.582 51.6261C159.719 51.6261 160.625 50.396 160.819 48.8421L162.373 37.4472H162.438L165.87 49.3601C166.193 50.3312 166.97 51.5614 169.107 51.5614C171.308 51.5614 172.085 50.2665 172.344 49.3601L175.84 37.4472H175.905L177.523 48.8421C177.718 50.3312 178.624 51.6261 180.761 51.6261C182.509 51.6261 183.674 50.2665 183.674 48.6479H183.804ZM192.868 41.8498H196.688C198.436 41.8498 199.342 42.7562 199.342 43.9216C199.342 45.3459 198.371 46.2524 196.947 46.2524H192.868V41.8498ZM189.76 51.4319H197.853C202.45 51.4319 205.557 48.7126 205.557 44.0511C205.557 39.0658 202.061 36.735 197.206 36.735H192.803V31.6203C192.803 29.5485 191.508 28.1888 189.695 28.1888C187.882 28.1888 186.588 29.5485 186.588 31.6203V47.9357C186.588 50.0075 187.882 51.3671 189.695 51.3671L189.76 51.4319ZM222.65 34.2748H218.183C215.787 34.2748 214.168 32.8504 214.168 30.4549C214.168 27.9946 215.787 26.635 218.183 26.635H222.65V34.2748Z" fill="white"/>
<path d="M5.4725 34.5165C5.77153 32.1243 6.32687 29.8175 7.01036 27.5534C7.90745 24.4349 9.35988 21.5728 10.8977 18.7534C11.3676 17.8563 11.9657 17.0019 12.521 16.1903C12.8628 15.7204 13.0764 15.3786 13.4181 14.9515C15.1269 12.6447 17.9036 9.61165 20.0822 7.90291C21.8764 6.4932 23.6706 5.12621 25.6783 3.9301C26.6181 3.37476 27.4725 2.94757 28.4123 2.47767C29.3094 2.00777 30.2919 1.53786 31.3172 1.1534L34.3502 0C33.6667 0 30.9327 0.854369 30.2065 1.11068C26.9599 2.3068 24.2259 3.46019 21.2783 5.25437L19.6977 6.23689C19.356 6.45049 19.2278 6.57864 18.8861 6.79223L16.622 8.45825C15.2123 9.61165 13.8026 10.8505 12.521 12.132C12.2647 12.3883 12.1793 12.5592 11.8803 12.8583C11.624 13.1146 11.4531 13.3709 11.2822 13.5417L10.0434 14.9515C8.93269 16.233 7.65114 18.0699 6.75405 19.4796C0.559876 29.5184 -1.61876 41.3942 1.24337 53.2699C2.26861 57.5845 3.6356 60.5748 5.64337 64.5049C6.75405 66.6408 8.93269 69.5883 10.4278 71.5107C11.2395 72.4932 12.0939 73.3903 12.9055 74.2874C13.589 75.0136 14.8278 76.167 15.5968 76.765C17.3482 78.132 18.8861 79.499 20.8084 80.6524C22.9016 81.9767 25.123 83.2583 27.6007 84.2835C32.9832 86.5049 38.6647 88 44.688 88C48.5327 88 51.5657 87.8718 55.3676 86.9748C62.5016 85.266 68.0123 82.7029 73.6084 78.3029L76.0434 76.2097C76.4278 75.8252 76.8123 75.3981 77.1968 75.099C77.4958 74.8427 77.4958 74.8427 77.7521 74.5437C77.923 74.3301 78.0939 74.2019 78.3074 73.9883C80.8278 71.2544 83.1346 68.1786 84.8861 64.8893C85.6977 63.3942 87.9618 58.567 88.2181 56.9437C87.9191 57.2427 87.7482 58.0117 87.5346 58.4388L85.4414 62.4971C84.6725 63.8641 83.1346 66.1709 82.1094 67.367L81.3832 68.2214C79.7599 70.1864 78.0084 71.8951 75.9579 73.5612C75.6162 73.8175 75.189 74.2019 74.8473 74.4583C74.4628 74.7573 74.0783 75.0136 73.6939 75.3126C73.2667 75.6116 72.8395 75.868 72.455 76.167C71.3443 76.9786 69.8492 77.833 68.6104 78.4311C66.5172 79.4563 65.1929 80.0544 62.8861 80.9087C52.8473 84.4971 40.6725 83.899 31.1463 79.5417C28.7113 78.4311 26.49 77.1495 24.3113 75.7398C20.7657 73.4757 17.9463 70.6136 15.2123 67.4951L14.0162 66C10.5133 61.5146 8.16376 56.3456 6.6259 50.7922C6.19871 49.2971 5.9424 47.9301 5.72881 46.3922C5.30162 43.6155 5.30162 41.4369 5.30162 38.6602C5.30162 36.3666 5.33288 35.4938 5.4725 34.5165Z" fill="white"/>
<path d="M42.1677 59.5068C42.1677 63.6505 42.0823 64.633 42.7658 68.9903C42.8939 69.802 43.6629 74.1165 43.9192 74.501C44.0473 74.2874 44.3036 73.6039 44.4318 73.3049C44.9017 72.3223 45.6706 70.6563 46.226 69.7592L47.593 67.5806C48.0629 66.8544 48.6182 66.1709 49.0881 65.4874C49.6435 64.7612 50.8396 63.3088 51.4804 62.6253C51.7794 62.3262 52.0784 62.0272 52.3774 61.7282C53.8299 60.3185 54.4706 59.6777 56.1794 58.3961C60.3658 55.1923 65.5347 52.9282 71.0027 51.9029C75.9153 51.0058 78.5211 51.0913 83.2629 51.3903C82.494 50.4932 77.9231 48.9981 77.026 48.7418C72.1988 47.4175 67.0299 47.2893 62.0745 48.0583L57.7172 48.8699C57.76 48.7845 57.8454 47.7165 57.8881 47.4602C57.9736 46.9476 58.059 46.5631 58.1871 46.0505C58.4435 45.1534 58.6998 44.299 59.0842 43.4874C62.3736 35.7981 68.4396 33.4058 69.0804 32.7223C67.6279 32.6369 64.5095 33.3204 63.0571 33.6622C51.3949 36.6524 43.9619 44.5554 42.4668 56.3456C42.3386 57.2855 42.2104 58.5243 42.2104 59.4641L42.1677 59.5068Z" fill="white"/>
<path d="M40.4162 73.9884C39.3056 67.7942 39.2628 67.068 39.2628 60.8738C39.2628 57.1146 40.2881 51.8175 41.6124 48.3573C42.6376 45.6233 43.8764 43.3592 45.5425 41.0952C50.0706 35.0291 57.2046 31.5262 64.5949 30.2874C65.1929 30.202 65.6201 30.1165 66.2182 30.0311C66.7735 29.9457 67.4143 29.9029 67.8842 29.8175C67.7988 29.7748 67.8415 29.7748 67.7133 29.7321L66.9017 29.6039C62.3308 29.134 57.6318 29.4757 53.3172 30.6719C50.4978 31.4835 48.2337 32.5088 45.8842 33.9185C44.6454 34.6874 44.2182 35.0719 43.2357 35.9262C42.2531 36.7379 41.057 37.9767 40.2881 39.002C39.0065 40.668 38.1522 41.9923 37.2551 44C37.0842 44.3845 36.5716 45.7088 36.4434 45.8796C35.7599 44.8117 34.6065 36.4389 34.3929 34.2602C33.9658 29.9457 33.9658 25.9728 34.6065 21.701L34.5211 21.7864L34.4784 21.8291C33.9658 22.5554 32.3852 27.1262 32.1716 27.8097C29.9502 35.3282 28.925 42.2058 29.8648 50.4078C30.3774 54.9787 31.7871 59.934 33.624 63.6932C35.5463 67.666 36.9988 69.8447 39.6046 73.0913L40.2454 73.8175C40.459 73.9884 40.2454 73.8602 40.459 73.9457L40.4162 73.9884Z" fill="white"/>
<path d="M23.7987 55.3631C22.987 54.3805 22.688 53.8252 21.6201 52.9281C19.057 50.8776 17.4764 49.8951 14.0589 48.998C13.1618 48.7417 10.3424 48.2291 9.35986 48.3572C9.74433 50.066 12.8628 54.765 14.187 56.6446C15.0414 57.8407 16.0667 59.165 17.0492 60.3184C17.8181 61.2155 19.3987 62.9242 20.2531 63.6932C20.5521 63.9922 20.723 64.1631 21.0647 64.4621L23.756 66.7262C25.9346 68.5204 29.3521 70.6563 31.9152 71.767C33.4958 72.4505 35.0764 73.2194 36.6997 73.6466L36.3579 73.2194C35.4181 72.1514 35.1618 71.8524 34.222 70.5708C31.9579 67.4951 29.9074 63.1378 28.8395 59.5068C27.088 53.6971 26.5754 48.6136 26.8744 42.5475C26.9171 41.6504 27.0453 40.7534 27.0453 39.9417C26.4045 40.6252 24.8239 45.5805 24.5249 46.8194C24.2259 48.1437 23.9696 49.3825 23.8414 50.7922C23.6278 52.8427 23.8414 54.765 23.7987 55.3204V55.3631Z" fill="white"/>
<path d="M88.987 33.4912C88.987 37.6776 88.7307 40.7534 87.7055 44.8116C86.2957 50.365 84.0744 55.0213 80.9132 59.5068L79.2045 61.7708C78.6064 62.5398 78.4356 62.6679 77.9656 63.2233C77.7521 63.4796 77.5385 63.7786 77.3249 63.9495C76.8977 64.3767 76.4278 64.8893 76.0006 65.3165C75.7443 65.5728 75.5734 65.7009 75.3598 65.9572C74.2491 67.0679 72.2414 68.6485 70.9171 69.631C63.9113 74.7572 54.3851 78.0038 45.6278 78.0038C40.9288 78.0038 36.5288 77.4912 32.2996 76.1669C29.3948 75.2271 27.5579 74.5436 24.8666 73.2194C24.0977 72.8349 23.3288 72.4077 22.6025 72.0233L23.6705 72.9203C24.055 73.2194 24.4394 73.4757 24.8666 73.8174C27.3016 75.5262 30.2064 77.1495 33.0258 78.2602C37.1268 79.8834 42.2957 81.165 46.8239 81.165C50.1132 81.165 50.9676 81.2504 54.4278 80.6951C55.9229 80.4388 57.2472 80.1398 58.6142 79.798C62.1171 78.8582 66.1754 77.1495 69.2084 75.2271C70.319 74.5436 71.2589 73.9029 72.2414 73.1767C72.6686 72.8776 73.2239 72.4504 73.6511 72.1087C74.8045 71.1262 75.2744 70.7417 76.3423 69.7165L79.3754 66.4699C81.5113 63.9495 82.8783 61.7708 84.5016 58.866C86.7656 54.8077 88.5598 49.0407 89.2006 44.4699C89.3288 43.7009 89.3715 42.932 89.4569 42.1631C89.7987 38.532 89.7132 34.8155 89.1579 31.1844C88.9443 29.8174 88.6453 28.1087 88.2608 26.8271C88.0899 27.0407 88.3889 27.9378 88.4317 28.3223C88.6453 29.7747 88.9016 32.1242 88.9016 33.5767L88.987 33.4912Z" fill="white"/>
<path d="M40.2026 18.9243V20.0349C40.2026 22.8971 43.1075 26.1864 45.9269 26.1864C47.2512 26.1864 47.8919 26.1864 49.1735 25.5029C50.4978 24.8194 51.3948 23.7515 52.0356 22.4272C53.2317 19.9068 52.7618 16.5747 50.8822 14.6097C50.4123 14.1398 49.9424 13.6699 49.2589 13.3281C47.5502 12.4311 45.3288 12.3456 43.6628 13.3281C41.8259 14.3961 40.2454 16.5747 40.2454 18.8815L40.2026 18.9243Z" fill="white"/>
<path d="M16.4939 31.4835C13.2473 32.0388 11.3249 34.9437 11.624 38.2757C11.923 41.266 14.4434 44.0854 17.9463 43.6582C22.9017 43.0602 24.5677 36.2252 20.9366 32.8932C19.9541 31.9961 18.2881 31.1417 16.4939 31.4835Z" fill="white"/>
<path d="M75.4453 32.8078C72.2414 33.3204 70.4045 36.1825 70.7035 39.3864C71.1734 44.4272 77.3676 46.4777 80.3579 42.4194C81.1696 41.3087 81.7249 39.7709 81.554 37.934C81.2977 35.1146 78.7346 32.2951 75.488 32.8078H75.4453Z" fill="white"/>
</svg>
